# xmcd CD database file
# Copyright (C) 1993-1998 Ti Kan
# 
# Track frame offsets:
#     150
#     17250
#     33440
#     50913
#     67515
#     88045
#     103790
#     119603
#     136478
#     152855
#     162628
# 
# Disc length: 2363 seconds
# 
# Revision: 1
# Processed by: cddbd v1.4b41PL1 Copyright (c) Steve Scherf et al.
# Submitted via: DiscPlay 4.0.4
# 
DISCID=9109390b
DTITLE=Paul Burlison - Train Kept A-Rollin'
DYEAR=1900
DGENRE=
TTITLE0=Train Kept A-Rollin'
TTITLE1=She's Hot
TTITLE2=Lonesome Tears In My Eyes
TTITLE3=We're Gonna Rock
TTITLE4=Love's Like Rain
TTITLE5=Memphis Blues
TTITLE6=Love My Baby
TTITLE7=Hound Dog
TTITLE8=Trouble Is I'm In Love With You
TTITLE9=Lonesome Train
TTITLE10=Boogie To Woodstock
EXTD=
EXTT0=
EXTT1=
EXTT2=
EXTT3=
EXTT4=
EXTT5=
EXTT6=
EXTT7=
EXTT8=
EXTT9=
EXTT10=
PLAYORDER=
